<svg width="174" height="35" viewBox="0 0 174 35" fill="none" xmlns="http://www.w3.org/2000/svg">
<path fill-rule="evenodd" clip-rule="evenodd" d="M116.834 8.50062C116.571 3.69225 130.697 0.628732 144.788 0.0872345C158.876 -0.454222 173.276 1.51301 173.54 6.32133L173.548 6.47297C174.365 21.4298 162.31 34.0866 146.677 34.6874C131.042 35.2883 117.659 23.6091 116.842 8.65226L116.834 8.50062ZM171.398 6.40365C171.281 4.25305 160.899 1.52152 144.899 2.1364C128.899 2.75133 118.858 6.2677 118.976 8.4183C119.094 10.5678 129.477 13.3004 145.475 12.6855C161.476 12.0706 171.515 8.55425 171.398 6.40365ZM93.5217 24.4789L94.9533 20.986L95.2217 20.5279C95.5796 20.3179 96.0369 20.108 96.5937 19.898L97.2498 19.669C97.4884 19.5926 97.7171 19.5067 97.9358 19.4113C98.1545 19.2968 98.3335 19.2204 98.4727 19.1822C98.6317 19.1441 98.7908 19.0868 98.9499 19.0105C98.7709 19.6212 98.5423 20.2797 98.2639 20.986C98.0054 21.6922 97.6475 22.6752 97.1902 23.9349C96.7329 25.1755 96.4048 26.3398 96.2059 27.4278C96.027 28.1149 96.1165 28.6207 96.4744 28.9452C96.8522 29.2888 97.3095 29.4797 97.8463 29.5178C98.4031 29.5751 98.9499 29.5083 99.4867 29.3174C100.024 29.1265 100.372 28.8593 100.531 28.5158H100.62C100.739 28.2104 100.898 28.0195 101.097 27.9432C101.296 27.8668 101.495 27.7809 101.694 27.6855C101.912 27.6091 102.121 27.466 102.32 27.256C102.519 27.0461 102.748 26.3685 103.006 25.2233C103.284 24.078 103.851 21.864 104.706 18.581C105.462 15.737 106.754 11.8528 108.583 6.92841C108.921 6.24128 108.862 5.6973 108.404 5.29648C107.987 4.91474 107.37 4.72387 106.555 4.72387C104.487 4.80022 103.205 5.64004 102.708 7.24335C102.012 9.19022 101.386 11.328 100.829 13.6566C100.729 13.8856 100.68 14.0478 100.68 14.1433C100.163 14.0669 99.3277 14.1528 98.1744 14.401C97.5381 14.5346 97.0112 14.5918 96.5937 14.5727L97.4288 12.6831C97.6674 12.1105 97.9358 11.4616 98.2341 10.7363C98.5323 10.011 99.0393 8.7703 99.7551 7.0143C99.954 6.40352 99.9341 5.93589 99.6955 5.61141C99.4768 5.28693 99.1288 5.07698 98.6516 4.98154C98.1744 4.88611 97.6276 4.90519 97.0112 5.0388C96.3948 5.15333 95.7983 5.35374 95.2217 5.64004C94.665 5.92635 94.1778 6.289 93.7603 6.728C93.3427 7.167 93.1041 7.66326 93.0445 8.21678C92.4679 9.70557 91.9111 11.118 91.3743 12.4541C90.8573 13.7902 90.1912 15.6225 89.376 17.9511C88.5807 20.2797 87.7257 23.3718 86.811 27.2274C86.5525 28.1054 86.8508 28.7353 87.7058 29.117C88.0836 29.2697 88.5111 29.3556 88.9883 29.3747C89.4854 29.3938 89.9626 29.3365 90.4199 29.2029C90.8772 29.0884 91.2848 28.907 91.6427 28.6589C92.0205 28.4108 92.2989 28.0672 92.4778 27.6282C92.6568 27.2083 92.8258 26.712 92.9848 26.1394C93.1439 25.5668 93.3228 25.0133 93.5217 24.4789ZM98.3235 19.0677C98.3434 19.0677 98.4428 19.0391 98.6218 18.9818C98.5025 19.02 98.4031 19.0486 98.3235 19.0677ZM16.2845 5.66867L16.1652 5.64004C14.5944 4.8193 12.8248 4.62843 10.8564 5.06743C8.80836 5.52552 7.20775 6.53713 6.05451 8.10226C4.64278 9.9537 3.33048 12.7022 2.11759 16.3478C1.52108 18.1802 0.884813 20.8237 0.208776 24.2785C0.208776 24.5266 0.238601 24.7365 0.298252 24.9083C0.159068 25.1946 0.0596503 25.5859 0 26.0822C0 26.8266 0.188893 27.4278 0.566678 27.8859C0.964347 28.344 1.44155 28.6685 1.99829 28.8593C2.57491 29.0502 3.18135 29.0979 3.81762 29.0025C4.45389 28.907 5.02057 28.6685 5.51765 28.2867C5.71649 28.3058 5.84573 28.3344 5.90538 28.3726C5.96503 28.4108 6.04457 28.4585 6.14398 28.5158C6.2434 28.573 6.482 28.6017 6.85979 28.6017C9.4844 28.8498 11.7909 28.1817 13.7792 26.5975C14.6541 25.9104 15.36 25.1374 15.8968 24.2785C16.4535 23.4005 16.8313 22.5511 17.0302 21.7304C17.2489 20.9096 17.2887 20.1748 17.1495 19.5258C17.0103 18.8578 16.712 18.4092 16.2547 18.1802C15.7974 17.932 15.4395 17.7698 15.181 17.6935C14.9424 17.598 14.6839 17.4549 14.4056 17.264C15.4991 16.615 16.4834 15.8325 17.3582 14.9163C19.4261 12.7404 20.0823 10.7744 19.3267 9.01843C19.1478 8.56035 18.8992 8.14044 18.5811 7.7587C18.2828 7.35787 17.9448 6.98567 17.567 6.64211C17.2091 6.27946 16.7816 5.95498 16.2845 5.66867ZM7.48612 25.5955C7.32705 25.5573 7.12821 25.5668 6.88961 25.6241H6.77031C6.86973 24.956 7.00891 24.3071 7.18786 23.6772C7.2674 23.41 7.35687 23.1332 7.45629 22.8469C7.55571 22.5606 7.65512 22.2266 7.75454 21.8449V21.7876C8.17209 21.7685 8.59959 21.7113 9.03702 21.6158C9.49434 21.5013 9.90195 21.444 10.2599 21.444C10.6376 21.444 10.9359 21.5299 11.1546 21.7017C11.3733 21.8544 11.4628 22.2171 11.423 22.7897C11.3833 23.3623 11.0552 23.9444 10.4388 24.5361C9.46452 25.166 8.68906 25.5096 8.11244 25.5668C7.87384 25.605 7.66507 25.6145 7.48612 25.5955ZM10.4985 12.0819C11.1944 11.1085 11.8406 10.6599 12.4371 10.7363C12.6558 10.7744 12.8447 10.7267 13.0038 10.5931C13.5406 10.8412 13.9284 11.118 14.167 11.4234C14.326 11.767 14.1868 12.1869 13.7494 12.6831C13.3716 13.1985 12.7453 13.6375 11.8704 14.0001C11.5125 14.1528 11.1248 14.296 10.7072 14.4296C10.3096 14.5441 9.90195 14.6873 9.4844 14.859C9.723 13.6184 10.061 12.6927 10.4985 12.0819ZM28.0941 5.6973C26.5631 6.04087 25.1713 6.89978 23.9186 8.27404C21.4332 11.0417 19.7133 14.4868 18.7589 18.6096C17.6056 23.6295 18.6893 26.9315 22.0098 28.5158C22.8449 29.0502 23.8788 29.346 25.1116 29.4033C27.1 29.5178 28.8099 29.0502 30.2415 28.0004C31.1363 27.4469 31.9416 26.7502 32.6574 25.9104C34.9837 23.181 36.6042 19.8503 37.5189 15.9184C38.2546 12.7499 38.185 10.1923 37.3101 8.24541C37.1908 7.92094 37.0616 7.62509 36.9224 7.35787C36.8031 7.09065 36.7235 6.89024 36.6838 6.75663C35.9282 5.7832 35.0136 5.20104 33.9399 5.01017C32.7667 4.80022 31.8123 5.06743 31.0767 5.81183C30.1421 5.48735 29.148 5.44917 28.0941 5.6973ZM24.2467 23.6486L24.2765 23.4768C24.4555 21.8353 25.1116 19.9934 26.245 17.9511C26.7421 17.0731 27.4181 16.0138 28.2731 14.7732C29.1281 13.5325 29.9433 12.435 30.7188 11.4807C30.9176 13.6947 30.6392 16.0997 29.8836 18.6955C29.1281 21.2913 28.0743 23.3909 26.7222 24.9942C26.5631 25.1851 26.3842 25.3473 26.1853 25.4809C25.9865 25.6145 25.7877 25.7577 25.5888 25.9104C25.4099 25.834 25.1812 25.6432 24.9028 25.3378C24.6245 25.0133 24.4256 24.5552 24.3063 23.9635L24.2467 23.6486ZM42.132 27.3133C41.953 28.0768 41.3367 28.5444 40.2828 28.7162C39.3086 28.888 38.384 28.783 37.5091 28.4012C36.5348 28.0004 36.1073 27.4374 36.2266 26.712C36.1073 25.605 36.7138 23.2 38.046 19.4972C40.0343 13.9429 42.0226 9.97278 44.011 7.58691C44.528 6.97613 44.9654 6.58485 45.3233 6.41306C45.7011 6.2222 46.1286 6.05041 46.6058 5.89772C47.083 5.74502 47.5801 5.60187 48.097 5.46826C49.131 5.20104 50.1053 5.01972 51.0199 4.92428C51.9544 4.80976 52.7895 4.91474 53.5252 5.23922C54.2609 5.54461 54.8276 6.0027 55.2252 6.61348C55.6428 7.22426 55.9013 7.94956 56.0007 8.78939C56.1001 9.61013 56.0703 10.4786 55.9112 11.3948C55.7522 12.2918 55.4638 13.208 55.0463 14.1433C54.6287 15.0595 54.1018 15.9184 53.4656 16.72C52.0737 18.476 50.4433 19.6117 48.5742 20.127L48.8725 20.6138C49.131 20.9955 49.4392 21.4154 49.7971 21.8735C50.1749 22.3316 50.5427 22.7992 50.9006 23.2764C51.2784 23.7536 51.6164 24.2307 51.9147 24.7079C52.2129 25.1851 52.4316 25.6336 52.5708 26.0535C52.8889 26.9888 52.6404 27.6664 51.8252 28.0863C51.169 28.468 50.6521 28.5635 50.2743 28.3726C50.1152 28.2772 49.9561 28.1531 49.7971 28.0004C49.638 27.8668 49.4193 27.7523 49.1409 27.6569C47.9678 27.9813 47.073 27.695 46.4566 26.7979C46.0789 26.2253 45.7906 25.7004 45.5917 25.2233C45.3929 24.7461 45.2239 24.3453 45.0847 24.0208C44.7268 23.3146 44.3192 22.7038 43.8619 22.1884C43.6431 22.7038 43.3946 23.3623 43.1162 24.1639C42.7782 25.1755 42.4004 26.2253 41.9829 27.3133H42.132ZM48.1567 10.6504C47.7789 11.4711 47.5204 12.0437 47.3812 12.3682C47.1029 13.0172 46.7947 13.7329 46.4566 14.5155C46.397 14.9354 46.3473 15.2312 46.3075 15.403L46.7251 15.0022L47.2321 14.7732C47.59 14.5823 47.9181 14.4105 48.2163 14.2578C48.5146 14.1051 48.783 13.9142 49.0216 13.6852C49.4789 13.2462 49.8766 12.5304 50.2146 11.5379C50.2146 11.347 50.2444 11.1562 50.3041 10.9653C50.3836 10.7744 50.4333 10.5836 50.4532 10.3927C50.5328 9.97278 50.3538 9.67694 49.9164 9.50515C49.5187 9.46698 49.0216 9.78191 48.4251 10.45C48.3058 10.5836 48.2163 10.6504 48.1567 10.6504ZM56.4192 28.5158C57.2742 28.8021 58.2087 28.9261 59.2227 28.888C60.8532 28.888 62.2649 28.6589 63.4579 28.2008C65.7644 27.3228 67.3948 26.0058 68.3493 24.2498C69.6417 21.9021 69.7311 19.8503 68.6177 18.0943C68.2995 17.598 67.9218 17.159 67.4843 16.7773C67.0668 16.3955 66.6592 16.052 66.2615 15.7466C65.8837 15.4412 65.5457 15.1549 65.2474 14.8877C64.9691 14.6205 64.81 14.3628 64.7702 14.1147C64.5913 12.9694 64.8398 12.225 65.5159 11.8815C66.0925 11.5952 67.196 11.5093 68.8265 11.6238C69.9598 11.4902 70.7551 11.2039 71.2125 10.7649C71.4511 10.5168 71.5505 10.135 71.5107 9.61967C71.8487 9.60059 72.1669 9.49561 72.4651 9.30474C72.7634 9.11387 72.9821 8.86574 73.1213 8.56035C73.4792 7.87322 73.3102 7.19563 72.6142 6.52759C72.2166 6.24128 71.8189 5.96452 71.4212 5.6973C71.0236 5.43009 70.5464 5.24876 69.9896 5.15333C68.3393 4.86702 66.7089 4.89565 65.0983 5.23922C64.2831 5.43009 63.1994 5.85954 61.8474 6.52759C60.6742 7.13837 59.7198 7.93048 58.9841 8.90391C58.5666 9.45744 58.2186 10.0968 57.9403 10.8222C57.6619 11.5284 57.473 12.4255 57.3736 13.5134C57.2742 14.6014 57.5028 15.613 58.0596 16.5482C58.6362 17.4644 59.4216 18.2756 60.4158 18.9818C60.6345 19.2109 60.9029 19.4399 61.221 19.669C61.5392 19.898 61.8275 20.127 62.086 20.3561C62.7222 20.8905 62.9807 21.3582 62.8614 21.759C62.6825 22.2934 61.8672 22.7897 60.4158 23.2478C60.0976 23.3814 59.7099 23.4386 59.2526 23.4195C58.8151 23.4005 58.0099 23.2764 56.8367 23.0473C55.2858 22.7229 54.2519 22.9615 53.7349 23.7631C53.3571 24.4312 53.2378 25.0897 53.377 25.7386C53.5162 26.3685 53.8443 26.922 54.3612 27.3992C54.8981 27.8763 55.5841 28.2485 56.4192 28.5158ZM84.1195 12.9694C84.1195 12.3968 83.9108 12.1105 83.4932 12.1105C83.3341 12.1105 83.1452 12.1487 82.9265 12.225C82.7078 12.3014 82.499 12.3682 82.3002 12.4255C81.5645 12.8072 80.9879 13.2271 80.5703 13.6852C80.1727 14.1242 79.7651 14.6205 79.3475 15.174C78.93 15.7275 78.5721 16.3192 78.2738 16.9491C77.9756 17.5789 77.7469 18.1706 77.5878 18.7242C77.0112 20.7665 77.2299 22.1407 78.244 22.8469C78.6615 23.1332 79.099 23.2764 79.5563 23.2764C80.0335 23.2573 80.4113 23.1619 80.6896 22.9901C80.9879 22.8183 81.2762 22.6561 81.5546 22.5034C81.8329 22.3507 82.1511 22.2457 82.509 22.1884C82.8868 22.1121 83.3441 22.1598 83.8809 22.3316C84.4377 22.4843 84.7359 22.6942 84.7757 22.9615C84.8155 23.2287 84.8155 23.5054 84.7757 23.7917C84.7359 24.078 84.726 24.3357 84.7459 24.5648C84.7856 24.7938 85.0043 24.937 85.402 24.9942C85.7798 25.4523 85.5412 26.0058 84.6862 26.6548C84.4675 26.8266 84.2587 26.9888 84.0599 27.1415C82.3499 28.1913 80.5306 28.7734 78.6019 28.888C77.389 28.9643 76.0966 28.7544 74.7246 28.2581C72.6766 27.5137 71.5234 25.8436 71.2649 23.2478C70.9269 20.8428 71.245 18.352 72.2193 15.7752C73.0345 13.5993 74.2673 11.5856 75.9176 9.7342C77.4089 8.03546 78.8802 6.92841 80.3317 6.41306C82.0616 5.55415 83.9306 5.22013 85.9389 5.411C88.0664 5.67822 89.4582 6.54667 90.1144 8.01637C90.7706 9.48606 90.6612 11.2516 89.7863 13.313C89.4881 14.0383 88.9214 14.6109 88.0863 15.0308C87.3705 15.4126 86.595 15.6034 85.7599 15.6034C84.9248 15.6034 84.388 15.3553 84.1494 14.859C83.9108 14.3437 83.9008 13.7138 84.1195 12.9694Z" fill="#FFFF00"/>
</svg>
